<svg width="48" height="48" viewBox="0 0 48 48" fill="none" xmlns="http://www.w3.org/2000/svg">
<circle cx="24" cy="24" r="24" fill="white"/>
<path fill-rule="evenodd" clip-rule="evenodd" d="M12.5983 15.0983C13.3016 14.3951 14.2554 14 15.25 14H32.75C33.7446 14 34.6984 14.3951 35.4017 15.0983C36.1049 15.8016 36.5 16.7554 36.5 17.75V21.5C36.5 21.8315 36.3683 22.1495 36.1339 22.3839C35.8995 22.6183 35.5815 22.75 35.25 22.75C34.9185 22.75 34.6005 22.8817 34.3661 23.1161C34.1317 23.3505 34 23.6685 34 24C34 24.3315 34.1317 24.6495 34.3661 24.8839C34.6005 25.1183 34.9185 25.25 35.25 25.25C35.9404 25.25 36.5 25.8096 36.5 26.5V30.25C36.5 31.2446 36.1049 32.1984 35.4017 32.9016C34.6984 33.6049 33.7446 34 32.75 34H15.25C14.2554 34 13.3016 33.6049 12.5983 32.9016C11.8951 32.1984 11.5 31.2446 11.5 30.25V26.5C11.5 25.8096 12.0596 25.25 12.75 25.25C13.0815 25.25 13.3995 25.1183 13.6339 24.8839C13.8683 24.6495 14 24.3315 14 24C14 23.6685 13.8683 23.3505 13.6339 23.1161C13.3995 22.8817 13.0815 22.75 12.75 22.75C12.0596 22.75 11.5 22.1904 11.5 21.5V17.75C11.5 16.7554 11.8951 15.8016 12.5983 15.0983ZM29 31.5V30.25C29 29.5596 28.4404 29 27.75 29C27.0596 29 26.5 29.5596 26.5 30.25V31.5H15.25C14.9185 31.5 14.6005 31.3683 14.3661 31.1339C14.1317 30.8995 14 30.5815 14 30.25V27.5355C14.5224 27.3508 15.0024 27.0509 15.4017 26.6516C16.1049 25.9484 16.5 24.9946 16.5 24C16.5 23.0054 16.1049 22.0516 15.4017 21.3484C15.0024 20.9491 14.5224 20.6492 14 20.4645V17.75C14 17.4185 14.1317 17.1005 14.3661 16.8661C14.6005 16.6317 14.9185 16.5 15.25 16.5H26.5V17.75C26.5 18.4404 27.0596 19 27.75 19C28.4404 19 29 18.4404 29 17.75V16.5H32.75C33.0815 16.5 33.3995 16.6317 33.6339 16.8661C33.8683 17.1005 34 17.4185 34 17.75V20.4645C33.4776 20.6492 32.9976 20.9491 32.5984 21.3484C31.8951 22.0516 31.5 23.0054 31.5 24C31.5 24.9946 31.8951 25.9484 32.5984 26.6516C32.9976 27.0509 33.4776 27.3508 34 27.5355V30.25C34 30.5815 33.8683 30.8995 33.6339 31.1339C33.3995 31.3683 33.0815 31.5 32.75 31.5H29ZM27.75 21.5C28.4404 21.5 29 22.0596 29 22.75V25.25C29 25.9404 28.4404 26.5 27.75 26.5C27.0596 26.5 26.5 25.9404 26.5 25.25V22.75C26.5 22.0596 27.0596 21.5 27.75 21.5Z" fill="#0DB76F"/>
</svg>
